<svg width="52" height="53" viewBox="0 0 52 53" fill="none" xmlns="http://www.w3.org/2000/svg">
<path d="M43.3497 32.259C40.8676 39.395 34.1194 44.5143 26.2077 44.5143C16.2017 44.5143 8.0573 36.3699 8.0573 26.364C8.0573 16.358 16.2017 8.2136 26.2077 8.2136C34.5848 8.2136 41.7208 13.9535 43.7375 21.7876H51.1838C50.8735 20.0036 50.3306 18.2196 49.6325 16.5131C48.3914 13.4881 46.5299 10.7733 44.2029 8.4463C41.8759 6.11933 39.1611 4.25776 36.1361 3.01671C33.0334 1.69809 29.6981 1 26.2852 1C22.8723 1 19.537 1.69809 16.4344 3.01671C13.4093 4.25776 10.6945 6.11933 8.36756 8.4463C6.0406 10.7733 4.17902 13.4881 2.93797 16.5131C1.61936 19.6158 0.921265 22.9511 0.921265 26.364C0.921265 29.7769 1.61936 33.1122 2.93797 36.2148C4.17902 39.2399 6.0406 41.9547 8.36756 44.2816C10.6945 46.6086 13.4093 48.4702 16.4344 49.7112C19.537 51.0298 22.8723 51.7279 26.2852 51.7279C29.6981 51.7279 33.0334 51.0298 36.1361 49.7112C39.1611 48.4702 41.8759 46.6086 44.2029 44.2816C46.5299 41.9547 48.3914 39.2399 49.6325 36.2148C50.1754 34.8962 50.6408 33.5776 50.9511 32.1814H43.3497V32.259Z" fill="#14B174" stroke="#0EB174" stroke-miterlimit="10"/>
<path d="M51.4165 26.9845C51.4165 24.9678 49.7876 23.3389 47.7709 23.3389C47.6933 23.3389 47.6158 23.3389 47.6158 23.3389H39.3938L36.1361 18.0644C35.2828 16.6682 33.8091 15.815 32.1027 15.8926C30.3962 15.9702 28.9225 16.9785 28.2244 18.5298L26.1301 23.2613L23.9583 18.4523C23.2602 16.9009 21.7864 15.8926 20.1575 15.815C18.4511 15.7375 16.8998 16.5907 16.0466 17.9869L11.7805 25.2005C11.4702 25.7434 11.3151 26.2864 11.3151 26.9845C11.3151 29.0012 12.9439 30.6301 14.9606 30.6301C16.3568 30.6301 17.5203 29.8544 18.1408 28.6909L19.4595 26.4415L21.9416 32.0262C22.6396 33.6551 24.2685 34.6635 25.975 34.6635C27.759 34.6635 29.3103 33.6551 30.0084 32.0262L32.568 26.364L33.8867 28.5358C34.6623 29.8544 36.1361 30.6301 37.6874 30.6301H47.8485C49.9427 30.5525 51.4165 29.0012 51.4165 26.9845Z" fill="#14B174" stroke="#0EB174" stroke-miterlimit="10"/>
</svg>
