<svg width="24" height="25" viewBox="0 0 24 25" fill="none" xmlns="http://www.w3.org/2000/svg">
<path d="M17.0563 0.875244H7.06865C3.25093 0.875244 0.144989 3.98118 0.144989 7.79891V17.7865C0.144989 21.6042 3.25093 24.7101 7.06865 24.7101H17.0562C20.8739 24.7101 23.9799 21.6042 23.9799 17.7865V7.79891C23.9799 3.98118 20.8739 0.875244 17.0563 0.875244ZM22.1178 17.7865C22.1178 20.5774 19.8472 22.848 17.0563 22.848H7.06865C4.27769 22.848 2.00709 20.5774 2.00709 17.7865V7.79891C2.00709 5.00794 4.27769 2.73735 7.06865 2.73735H17.0562C19.8472 2.73735 22.1178 5.00794 22.1178 7.79891V17.7865Z" fill="#3C7DBF"/>
<path d="M12.0625 6.36841C8.5201 6.36841 5.63821 9.25029 5.63821 12.7927C5.63821 16.335 8.5201 19.2169 12.0625 19.2169C15.6048 19.2169 18.4867 16.335 18.4867 12.7927C18.4867 9.25029 15.6048 6.36841 12.0625 6.36841ZM12.0625 17.3548C9.5469 17.3548 7.50032 15.3082 7.50032 12.7927C7.50032 10.2771 9.5469 8.23051 12.0625 8.23051C14.578 8.23051 16.6246 10.2771 16.6246 12.7927C16.6246 15.3082 14.578 17.3548 12.0625 17.3548Z" fill="#3C7DBF"/>
</svg>

