<svg width="48" height="38" viewBox="0 0 48 38" fill="none" xmlns="http://www.w3.org/2000/svg">
<path d="M43.7812 0.71875H4.21875C1.89544 0.71875 0 2.61212 0 4.9375V33.0625C0 35.38 1.887 37.2812 4.21875 37.2812H43.7812C46.0988 37.2812 48 35.3942 48 33.0625V4.9375C48 2.62 46.113 0.71875 43.7812 0.71875ZM43.1987 3.53125L24.0894 22.6406L4.81491 3.53125H43.1987ZM2.8125 32.4801V5.50647L16.3574 18.9352L2.8125 32.4801ZM4.80122 34.4688L18.3547 20.9153L23.1038 25.6236C23.6535 26.1687 24.5407 26.1669 25.0882 25.6193L29.7188 20.9887L43.1988 34.4688H4.80122ZM45.1875 32.48L31.7075 19L45.1875 5.51987V32.48Z" fill="white"/>
</svg>
