<svg width="24" height="25" viewBox="0 0 24 25" fill="none" xmlns="http://www.w3.org/2000/svg">
<path d="M3.77145 24.5052H11.4789V16.1055H8.70975V13.3364H11.4789V9.87495C11.4789 7.9663 13.0317 6.41353 14.9403 6.41353H18.4017V9.18267H15.6326C14.8691 9.18267 14.248 9.80374 14.248 10.5672V13.3364H18.2768L17.8153 16.1055H14.248V24.5052H20.4786C22.3873 24.5052 23.94 22.9525 23.94 21.0438V4.33667C23.94 2.42802 22.3873 0.875244 20.4786 0.875244H3.77145C1.8628 0.875244 0.310028 2.42802 0.310028 4.33667V21.0438C0.310028 22.9525 1.8628 24.5052 3.77145 24.5052ZM1.6946 4.33667C1.6946 3.19151 2.6263 2.25981 3.77145 2.25981H20.4786C21.6238 2.25981 22.5555 3.19151 22.5555 4.33667V21.0438C22.5555 22.189 21.6238 23.1207 20.4786 23.1207H15.6326V17.4901H18.9882L19.9113 11.9518H15.6326V10.5672H19.7863V5.02896H14.9403C12.2682 5.02896 10.0943 7.2028 10.0943 9.87495V11.9518H7.32518V17.4901H10.0943V23.1207H3.77145C2.6263 23.1207 1.6946 22.189 1.6946 21.0438V4.33667Z" fill="#3C7DBF"/>
</svg>
