<svg width="88" height="88" viewBox="0 0 88 88" fill="none" xmlns="http://www.w3.org/2000/svg">
<path d="M10.5951 45.9013H46.1909C47.14 45.9013 47.9096 45.1316 47.9096 44.1825V33.7079C47.9096 32.7589 47.14 31.9892 46.1909 31.9892H10.5951C9.64597 31.9892 8.87631 32.7589 8.87631 33.7079V44.1825C8.87631 45.1318 9.6458 45.9013 10.5951 45.9013ZM12.3138 35.4267H44.4721V42.4638H12.3138V35.4267Z" fill="#3C7DBF"/>
<path d="M8.87631 78.5543C8.87631 79.5033 9.64597 80.273 10.5951 80.273H46.1909C47.14 80.273 47.9096 79.5033 47.9096 78.5543V51.9097C47.9096 50.9606 47.14 50.1909 46.1909 50.1909H10.5951C9.64597 50.1909 8.87631 50.9606 8.87631 51.9097V78.5543ZM36.0425 53.6284H44.472V59.0726H36.0425V53.6284ZM36.0425 62.5099H44.472V67.954H36.0425V62.5099ZM36.0425 71.3915H44.472V76.8355H36.0425V71.3915ZM24.1806 53.6284H32.6052V59.0726H24.1806V53.6284ZM24.1806 62.5099H32.6052V67.954H24.1806V62.5099ZM24.1806 71.3915H32.6052V76.8355H24.1806V71.3915ZM12.3138 53.6284H20.7431V59.0726H12.3138V53.6284ZM12.3138 62.5099H20.7431V67.954H12.3138V62.5099ZM12.3138 71.3915H20.7431V76.8355H12.3138V71.3915Z" fill="#3C7DBF"/>
<path d="M66.5648 62.1153C67.9626 62.1153 69.2362 61.578 70.1896 60.7009C71.143 61.578 72.4166 62.1153 73.8146 62.1153C76.7638 62.1153 79.1632 59.7312 79.1632 56.8009C79.1632 53.8706 76.7638 51.4867 73.8146 51.4867C72.4166 51.4867 71.143 52.024 70.1896 52.9011C69.2364 52.024 67.9626 51.4867 66.5648 51.4867C63.6181 51.4867 61.221 53.8706 61.221 56.8009C61.221 59.7312 63.6183 62.1153 66.5648 62.1153ZM73.8146 54.9244C74.8684 54.9244 75.7257 55.7662 75.7257 56.8011C75.7257 57.8359 74.8684 58.6779 73.8146 58.6779C72.7636 58.6779 71.9084 57.8361 71.9084 56.8011C71.9084 55.7662 72.7636 54.9244 73.8146 54.9244ZM66.5648 54.9244C67.6158 54.9244 68.4709 55.7662 68.4709 56.8011C68.4709 57.8359 67.6158 58.6779 66.5648 58.6779C65.5138 58.6779 64.6585 57.8361 64.6585 56.8011C64.6585 55.7662 65.5138 54.9244 66.5648 54.9244Z" fill="#3C7DBF"/>
<path d="M23.8616 11.8659H32.9288C33.8779 11.8659 34.6476 11.0963 34.6476 10.1472C34.6476 9.19809 33.8779 8.42844 32.9288 8.42844H23.8616C22.9125 8.42844 22.1428 9.19809 22.1428 10.1472C22.1428 11.0963 22.9125 11.8659 23.8616 11.8659Z" fill="#3C7DBF"/>
<path d="M23.8616 18.7402H32.9288C33.8779 18.7402 34.6476 17.9706 34.6476 17.0215C34.6476 16.0724 33.8779 15.3027 32.9288 15.3027H23.8616C22.9125 15.3027 22.1428 16.0724 22.1428 17.0215C22.1428 17.9706 22.9125 18.7402 23.8616 18.7402Z" fill="#3C7DBF"/>
<path d="M82.6361 34.2547H55.6945V22.3417C55.6945 19.3469 53.2469 16.9104 50.238 16.9104H41.4404V11.749H48.7988C49.7478 11.749 50.5175 10.9794 50.5175 10.0303V6.22033C50.5175 2.79039 47.7106 0 44.2604 0C43.9443 0 19.2593 0 19.2593 0C17.1009 0 15.345 1.74797 15.345 3.89658V16.9106H6.55256C3.54114 16.9106 1.09106 19.3471 1.09106 22.3419V43.9976C1.09106 44.9467 1.86072 45.7163 2.80981 45.7163C3.7589 45.7163 4.52856 44.9467 4.52856 43.9976V22.3417C4.52856 21.2424 5.43658 20.3479 6.55256 20.3479H15.345V24.2672H11.7098C10.7607 24.2672 9.99109 25.0369 9.99109 25.986C9.99109 26.935 10.7607 27.7047 11.7098 27.7047H17.0637H39.7217H44.6188C45.5678 27.7047 46.3375 26.935 46.3375 25.986C46.3375 25.0369 45.5678 24.2672 44.6188 24.2672H41.4404V20.3479H50.238C51.3514 20.3479 52.257 21.2422 52.257 22.3417V82.5687C52.257 83.6681 51.3513 84.5625 50.238 84.5625H6.55256C5.43658 84.5625 4.52856 83.6682 4.52856 82.5687V60.1726C4.52856 59.2235 3.7589 58.4538 2.80981 58.4538C1.86072 58.4538 1.09106 59.2235 1.09106 60.1726V82.5687C1.09106 85.5635 3.54114 88 6.55256 88H50.238C53.2469 88 55.6945 85.5635 55.6945 82.5687V69.2137H82.6361C84.9922 69.2137 86.9089 67.3083 86.9089 64.9663V38.5021C86.9089 36.1601 84.9922 34.2547 82.6361 34.2547ZM41.4404 6.81467V6.22033C41.4404 4.68583 42.7053 3.4375 44.2602 3.4375C45.815 3.4375 47.0798 4.686 47.0798 6.22033V8.31153H41.4403V6.81467H41.4404ZM38.0029 6.22033V24.2672H18.7825V3.89658C18.7825 3.6477 19.001 3.4375 19.2591 3.4375H38.6667C38.243 4.27556 38.0029 5.22036 38.0029 6.22033ZM83.4714 64.9663C83.4714 65.4053 83.0888 65.7762 82.6361 65.7762H55.6945V45.2145H83.4714V64.9663ZM83.4714 41.777H55.6945V37.6922H82.6361C83.089 37.6922 83.4714 38.0631 83.4714 38.5021V41.777Z" fill="#3C7DBF"/>
<path d="M2.80981 54.1739C3.7589 54.1739 4.52856 53.4043 4.52856 52.4552V52.4454C4.52856 51.4963 3.7589 50.7314 2.80981 50.7314C1.86072 50.7314 1.09106 51.5059 1.09106 52.455C1.09106 53.4041 1.86054 54.1739 2.80981 54.1739Z" fill="#3C7DBF"/>
</svg>
