<svg width="95" height="95" viewBox="0 0 95 95" fill="none" xmlns="http://www.w3.org/2000/svg">
<g clip-path="url(#clip0_36_0)">
<path d="M93.4351 58.696H87.1755C86.3102 58.696 85.6106 59.3971 85.6106 60.2609H69.9617C69.5454 60.2609 69.148 60.4252 68.8553 60.7194L60.0403 69.5345L29.0053 64.1372C27.5171 63.8805 25.996 64.2874 24.8364 65.2623C23.68 66.2357 23.0149 67.6629 23.0149 69.1761C23.0149 70.9867 23.9867 72.6799 25.5516 73.5938L59.6897 93.5071C60.4863 93.9718 61.3751 94.2066 62.2656 94.205C63.048 94.205 63.8305 94.0251 64.555 93.6636L81.2853 85.2992H85.6106C85.6106 86.163 86.3102 86.8641 87.1755 86.8641H93.4351C94.3005 86.8641 95 86.163 95 85.2992V60.2609C95 59.3971 94.3005 58.696 93.4351 58.696ZM85.6106 82.1694H80.916C80.6734 82.1694 80.4324 82.2258 80.2165 82.3337L63.1544 90.8655C62.5504 91.166 61.8446 91.1425 61.2672 90.8045L27.1306 70.8912C26.5218 70.536 26.1447 69.8787 26.1447 69.1761C26.1447 68.5893 26.4029 68.0353 26.852 67.6566C27.3011 67.2795 27.8895 67.1214 28.4701 67.22L57.333 72.2402L56.0654 73.5077C54.9356 74.6391 54.3128 76.143 54.3128 77.7423C54.3128 81.0474 57.0013 83.7343 60.3032 83.7343C61.9041 83.7343 63.4079 83.1115 64.5393 81.9785L72.633 73.8864L70.4202 71.6737L62.3266 79.7673C61.793 80.2994 61.0575 80.6045 60.3032 80.6045C58.7258 80.6045 57.4426 79.3213 57.4426 77.7423C57.4426 76.9787 57.7399 76.2588 58.2798 75.7189L70.6096 63.3907H85.6106V82.1694ZM91.8702 83.7343H88.7404V61.8258H91.8702V83.7343Z" fill="#3C7DBF"/>
<path d="M55.8776 24.2684C50.6994 24.2684 46.4883 28.4795 46.4883 33.6577C46.4883 38.836 50.6994 43.0471 55.8776 43.0471C61.0559 43.0471 65.267 38.836 65.267 33.6577C65.267 28.4795 61.0559 24.2684 55.8776 24.2684ZM55.8776 39.9173C52.4255 39.9173 49.6181 37.1099 49.6181 33.6577C49.6181 30.2056 52.4255 27.3982 55.8776 27.3982C59.3298 27.3982 62.1372 30.2056 62.1372 33.6577C62.1372 37.1099 59.3298 39.9173 55.8776 39.9173Z" fill="#3C7DBF"/>
<path d="M85.6106 0.794952H26.1447C25.2793 0.794952 24.5798 1.49602 24.5798 2.35985V8.61942V14.879H12.0606C11.6444 14.879 11.2469 15.0433 10.9543 15.3375L0 26.2918L2.21276 28.5045L12.7085 18.0088H24.5798V22.7035V27.3981H16.7553V30.5279H26.1447H37.0989C38.825 30.5279 40.2287 31.9316 40.2287 33.6577C40.2287 34.4918 39.9032 35.2774 39.3101 35.8689C38.717 36.4604 37.9315 36.7875 37.0989 36.7875H26.1447C25.935 36.7875 25.7315 36.8298 25.5422 36.9096C25.3513 36.9894 25.1807 37.1036 25.0367 37.2476L20.3436 41.9407L22.5564 44.1535L24.5798 42.1301V44.612V50.8715H1.10638V54.0013H26.1447H33.9691H77.7862H85.6106C86.476 54.0013 87.1755 53.3003 87.1755 52.4364V44.612V22.7035V14.879V8.61942V2.35985C87.1755 1.49602 86.476 0.794952 85.6106 0.794952ZM27.7096 16.4439H32.2055C31.639 18.641 29.9051 20.3733 27.7096 20.9414V16.4439ZM27.7096 50.8715V46.374C29.9051 46.9421 31.639 48.6744 32.2055 50.8715H27.7096ZM84.0457 50.8715H79.5498C80.1163 48.6744 81.8502 46.9421 84.0457 46.374V50.8715ZM84.0457 43.1879C80.1226 43.8499 77.0256 46.9484 76.3621 50.8715H35.3932C34.7312 46.9484 31.6328 43.8514 27.7096 43.1879V39.9173H37.0989C38.7671 39.9173 40.3398 39.2647 41.5229 38.0817C42.7075 36.8986 43.3585 35.3275 43.3585 33.6577C43.3585 30.2056 40.5511 27.3981 37.0989 27.3981H27.7096V24.1275C31.6328 23.4656 34.7297 20.3671 35.3932 16.4439H76.3621C77.0241 20.3671 80.1226 23.464 84.0457 24.1275V43.1879ZM84.0457 20.9414C81.8502 20.3733 80.1163 18.641 79.5498 16.4439H84.0457V20.9414ZM84.0457 13.3141H77.7862H33.9691H27.7096V10.1843H84.0457V13.3141ZM84.0457 7.05453H27.7096V3.92474H84.0457V7.05453Z" fill="#3C7DBF"/>
</g>
<defs>
<clipPath id="clip0_36_0">
<rect width="95" height="95" fill="white"/>
</clipPath>
</defs>
</svg>
