<svg width="137" height="32" viewBox="0 0 137 32" fill="none" xmlns="http://www.w3.org/2000/svg">
<path d="M0.416504 13.0286C0.416504 6.35799 6.23393 0.85083 13.1373 0.85083C20.0406 0.85083 25.858 6.43556 25.858 13.0286C25.858 19.6993 20.0406 25.284 13.1373 25.284C6.23393 25.284 0.416504 19.6993 0.416504 13.0286ZM19.8079 13.0286C19.8079 9.30548 16.7829 6.12529 13.1373 6.12529C9.49168 6.12529 6.46663 9.30548 6.46663 13.0286C6.46663 16.7518 9.49168 19.932 13.1373 19.932C16.7829 19.932 19.8079 16.8294 19.8079 13.0286Z" fill="#3C7DBF"/>
<path d="M38.4237 25.5167L35.0108 20.6301L31.5204 25.5167H25.2375L31.8306 16.2089L25.5478 7.21124H31.9082L35.0108 11.6325L38.1134 7.21124H44.3963L38.1134 16.0537L44.7065 25.4392H38.4237V25.5167Z" fill="#3C7DBF"/>
<path d="M46.8007 30.5585L48.0418 26.6026C48.9726 27.1456 49.9809 27.5334 50.5239 27.5334C51.3771 27.5334 52.1528 27.2232 52.463 26.7578L52.9284 25.7494L45.4821 7.28879H51.6098L55.8759 19.3115L59.9093 7.28879H65.9595L58.8234 26.0597C57.3497 29.7828 54.8676 31.8771 51.8425 31.8771C50.2136 31.8771 48.1193 31.3341 46.8007 30.5585Z" fill="#3C7DBF"/>
<path d="M96.3652 13.8819V25.5167H90.6253V14.9678C90.6253 13.1062 89.4618 11.8652 87.7554 11.8652C85.9714 11.8652 84.6527 13.1062 84.6527 14.7351V25.5943H78.9129V14.9678C78.9129 13.1062 77.7494 11.8652 76.043 11.8652C74.259 11.8652 72.9403 13.1062 72.9403 14.7351V25.5167H67.0453V7.28879H73.0179V9.61576C73.8711 7.90931 75.6551 6.82339 77.9045 6.82339C80.3091 6.82339 82.4809 7.98688 83.6444 9.92602C84.6527 7.98688 86.8246 6.82339 89.5394 6.82339C93.3401 6.82339 96.3652 9.77089 96.3652 13.8819Z" fill="#3C7DBF"/>
<path d="M97.3735 16.1313C97.3735 11.0895 101.872 6.82339 107.224 6.82339C112.576 6.82339 117.075 11.0119 117.075 16.1313C117.075 21.2506 112.576 25.4391 107.224 25.4391C101.872 25.4391 97.3735 21.173 97.3735 16.1313ZM111.646 16.1313C111.646 13.7267 109.629 11.71 107.302 11.71C104.975 11.71 102.958 13.7267 102.958 16.1313C102.958 18.5358 104.975 20.6301 107.302 20.6301C109.629 20.6301 111.646 18.5358 111.646 16.1313Z" fill="#3C7DBF"/>
<path d="M136.079 13.8818V25.5167H130.339V15.278C130.339 13.2613 129.098 11.8651 127.236 11.8651C125.375 11.8651 124.056 13.2613 124.056 15.0453V14.9678V25.5943H118.084V7.28877H124.056V9.38304C125.22 7.83173 127.159 6.90094 129.408 6.90094C133.286 6.82337 136.079 9.77087 136.079 13.8818Z" fill="#3C7DBF"/>
</svg>
