<svg width="98" height="98" viewBox="0 0 98 98" fill="none" xmlns="http://www.w3.org/2000/svg">
<g clip-path="url(#clip0_36_69)">
<path d="M93.1169 48.9668L88.6707 48.41C87.319 45.1029 85.377 42.0438 82.9633 39.3971L86.2324 25.5481C86.3667 24.9789 86.2335 24.3796 85.8706 23.921C85.5077 23.4623 84.9551 23.1948 84.3704 23.1944L83.9521 23.1942C83.9497 23.1942 83.9479 23.1942 83.9454 23.1942C78.5189 23.1942 73.6283 26.6085 71.7047 31.6164C70.3441 31.0757 68.9455 30.6303 67.5192 30.2929C66.4904 30.0496 65.4593 30.686 65.216 31.715C64.9727 32.7438 65.6093 33.7749 66.6381 34.0182C71.5104 35.1706 75.8566 37.6344 79.2824 41.0535C79.4076 41.2369 79.5636 41.3992 79.747 41.5305C82.2442 44.1516 84.2182 47.2964 85.4987 50.8206C85.7439 51.4958 86.347 51.977 87.0598 52.0662L92.6416 52.7651C93.5142 52.8743 94.1721 53.6199 94.1721 54.4992V64.1493C94.1721 65.0286 93.514 65.7741 92.6416 65.8834L87.4692 66.531C86.7252 66.624 86.1041 67.1429 85.8802 67.8586C84.3457 72.7614 81.4302 77.097 77.4484 80.396C77.0095 80.7597 76.7555 81.3 76.7555 81.8699V92.4496C76.7555 93.3992 75.983 94.1717 75.0336 94.1717H63.9307C62.9811 94.1717 62.2086 93.3992 62.2086 92.4496V88.4175C62.2086 87.3603 61.3515 86.5034 60.2946 86.5034H44.2138C43.1569 86.5034 42.2997 87.3603 42.2997 88.4175V92.4496C42.2997 93.3992 41.5272 94.1717 40.5777 94.1717H29.4746C28.5252 94.1717 27.7527 93.3992 27.7527 92.4496V84.9792C27.7527 84.2774 27.3686 83.6319 26.7518 83.2972C18.1612 78.633 12.8242 69.6693 12.8242 59.9041C12.8242 45.2371 24.7566 33.3046 39.4237 33.3046H41.8222C42.8791 33.3046 43.7362 32.4477 43.7362 31.3906C43.7362 30.3334 42.8791 29.4765 41.8222 29.4765H39.4237C25.2152 29.4765 13.2514 39.2663 9.91999 52.4548H8.51756C5.93167 52.4548 3.82812 50.351 3.82812 47.7653C3.82812 45.1796 5.93167 43.0759 8.51756 43.0759C9.5745 43.0759 10.4316 42.219 10.4316 41.1618C10.4316 40.1047 9.5745 39.2478 8.51756 39.2478C3.82104 39.2478 0 43.0686 0 47.7653C0 52.4621 3.82104 56.2829 8.51756 56.2829H9.21256C9.07092 57.4708 8.99608 58.6787 8.99608 59.9041C8.99608 70.6896 14.6873 80.6203 23.9244 86.0936V92.4498C23.9244 95.5102 26.4142 98 29.4744 98H40.5773C43.6377 98 46.1275 95.5102 46.1275 92.4498V90.3317H58.3801V92.4498C58.3801 95.5102 60.8699 98 63.9303 98H75.0332C78.0934 98 80.5832 95.5102 80.5832 92.4498V82.7524C84.4695 79.3345 87.4022 75.0231 89.1379 70.1801L93.1167 69.6819C95.9005 69.3335 97.9998 66.9549 97.9998 64.1493V54.4992C97.9998 51.6938 95.9007 49.3152 93.1169 48.9668ZM79.7489 36.3512C78.321 35.1833 76.7917 34.1485 75.1831 33.26C76.2406 30.2215 78.82 27.9606 81.8961 27.2547L79.7489 36.3512Z" fill="#3C7DBF"/>
<path d="M76.1929 48.6037C75.8371 48.2477 75.3433 48.0429 74.8399 48.0429C74.3365 48.0429 73.8427 48.2477 73.4867 48.6037C73.1306 48.9597 72.9258 49.4535 72.9258 49.9569C72.9258 50.4603 73.1305 50.9542 73.4867 51.3102C73.8429 51.6662 74.3365 51.871 74.8399 51.871C75.3433 51.871 75.8371 51.6662 76.1929 51.3102C76.549 50.9542 76.754 50.4603 76.754 49.9569C76.754 49.4535 76.549 48.9597 76.1929 48.6037Z" fill="#3C7DBF"/>
<path d="M40.578 9.19742C36.1453 9.19742 32.539 12.8037 32.539 17.2365C32.539 21.6692 36.1453 25.2755 40.578 25.2755C45.0108 25.2755 48.6171 21.6692 48.6171 17.2365C48.6171 12.8037 45.0108 9.19742 40.578 9.19742ZM40.578 21.4474C38.2561 21.4474 36.3671 19.5584 36.3671 17.2365C36.3671 14.9145 38.2561 13.0255 40.578 13.0255C42.9 13.0255 44.789 14.9145 44.789 17.2365C44.789 19.5584 42.9 21.4474 40.578 21.4474Z" fill="#3C7DBF"/>
<path d="M64.6952 40.578H62.9725C63.7294 39.3525 64.1673 37.9102 64.1673 36.3671C64.1673 31.9343 60.561 28.3281 56.1283 28.3281C51.6955 28.3281 48.0892 31.9343 48.0892 36.3671C48.089 37.9102 48.527 39.3525 49.2838 40.578H39.8124C38.7555 40.578 37.8984 41.435 37.8984 42.4921C37.8984 43.5492 38.7555 44.4062 39.8124 44.4062H64.6952C65.7521 44.4062 66.6093 43.5492 66.6093 42.4921C66.6093 41.435 65.7523 40.578 64.6952 40.578ZM56.1283 40.578C53.8063 40.578 51.9173 38.6891 51.9173 36.3671C51.9173 34.0452 53.8063 32.1562 56.1283 32.1562C58.4502 32.1562 60.3392 34.0452 60.3392 36.3671C60.3392 38.6891 58.45 40.578 56.1283 40.578Z" fill="#3C7DBF"/>
</g>
<defs>
<clipPath id="clip0_36_69">
<rect width="98" height="98" fill="white"/>
</clipPath>
</defs>
</svg>
