<svg width="24" height="24" viewBox="0 0 24 24" fill="none" xmlns="http://www.w3.org/2000/svg">
<path fill-rule="evenodd" clip-rule="evenodd" d="M19.9042 4.24255C17.7707 2.10656 14.9333 0.929719 11.9106 0.928467C5.68187 0.928467 0.612613 5.99758 0.610107 12.2279C0.609272 14.2196 1.12956 16.1638 2.1185 17.8775L0.51532 23.7332L6.50587 22.1617C8.1565 23.0621 10.0148 23.5366 11.906 23.5372H11.9107C18.1387 23.5372 23.2085 18.4676 23.2109 12.237C23.2121 9.21743 22.0378 6.3784 19.9042 4.24255ZM11.9106 21.6288H11.9067C10.2214 21.6281 8.5685 21.1751 7.12623 20.3195L6.78341 20.1159L3.22853 21.0485L4.17738 17.5825L3.95398 17.2272C3.01376 15.7317 2.51727 14.0033 2.51811 12.2286C2.52006 7.05013 6.73358 2.83702 11.9143 2.83702C14.4231 2.83786 16.7813 3.81608 18.5546 5.59143C20.3279 7.36678 21.3039 9.72659 21.303 12.2363C21.3008 17.4152 17.0876 21.6288 11.9106 21.6288ZM17.0625 14.5943C16.7802 14.4529 15.392 13.77 15.1331 13.6757C14.8745 13.5814 14.686 13.5345 14.4979 13.8171C14.3096 14.0996 13.7686 14.7357 13.6038 14.924C13.439 15.1125 13.2745 15.1362 12.9921 14.9947C12.7096 14.8535 11.7999 14.5552 10.7213 13.5933C9.88203 12.8446 9.31539 11.9199 9.15059 11.6374C8.98607 11.3545 9.1492 11.2165 9.27447 11.0611C9.58013 10.6816 9.8862 10.2836 9.9803 10.0953C10.0745 9.90684 10.0273 9.7419 9.95663 9.60062C9.8862 9.45934 9.32151 8.06955 9.08629 7.50402C8.8569 6.95367 8.62432 7.028 8.45089 7.01937C8.28637 7.01115 8.09805 7.00948 7.90972 7.00948C7.72154 7.00948 7.4156 7.08005 7.15671 7.36288C6.89796 7.64558 6.16861 8.32858 6.16861 9.71838C6.16861 11.1082 7.18037 12.4508 7.32151 12.6393C7.46265 12.8277 9.31261 15.6797 12.145 16.9026C12.8186 17.1938 13.3445 17.3674 13.7547 17.4975C14.4311 17.7124 15.0465 17.6821 15.5331 17.6094C16.0756 17.5283 17.2035 16.9263 17.439 16.2668C17.6742 15.6072 17.6742 15.0419 17.6035 14.924C17.5331 14.8063 17.3448 14.7357 17.0625 14.5943Z" fill="#3C7DBF"/>
</svg>
